<?xml version="1.0" encoding="UTF-8" standalone="no"?>
<svg
   version="1.1"
   id="svg851"
   xml:space="preserve"
   width="417.63611"
   height="119.62621"
   viewBox="0 0 417.6361 119.6262"
   sodipodi:docname="logo-utn-ba.svg"
   inkscape:version="1.1.1 (1:1.1+202109281949+c3084ef5ed)"
   xmlns:inkscape="http://www.inkscape.org/namespaces/inkscape"
   xmlns:sodipodi="http://sodipodi.sourceforge.net/DTD/sodipodi-0.dtd"
   xmlns="http://www.w3.org/2000/svg"
   xmlns:svg="http://www.w3.org/2000/svg"
   xmlns:rdf="http://www.w3.org/1999/02/22-rdf-syntax-ns#"
   xmlns:cc="http://creativecommons.org/ns#"
   xmlns:dc="http://purl.org/dc/elements/1.1/"><metadata
     id="metadata857"><rdf:RDF><cc:Work
         rdf:about=""><dc:format>image/svg+xml</dc:format><dc:type
           rdf:resource="http://purl.org/dc/dcmitype/StillImage" /></cc:Work></rdf:RDF></metadata><defs
     id="defs855"><clipPath
       clipPathUnits="userSpaceOnUse"
       id="clipPath905"><path
         d="M 0,595.276 H 841.89 V 0 H 0 Z"
         id="path903" /></clipPath><clipPath
       clipPathUnits="userSpaceOnUse"
       id="clipPath931"><path
         d="M 0,595.276 H 841.89 V 0 H 0 Z"
         id="path929" /></clipPath><clipPath
       clipPathUnits="userSpaceOnUse"
       id="clipPath949"><path
         d="M 0,595.276 H 841.89 V 0 H 0 Z"
         id="path947" /></clipPath><clipPath
       clipPathUnits="userSpaceOnUse"
       id="clipPath965"><path
         d="M 0,595.276 H 841.89 V 0 H 0 Z"
         id="path963" /></clipPath><clipPath
       clipPathUnits="userSpaceOnUse"
       id="clipPath985"><path
         d="M 0,595.276 H 841.89 V 0 H 0 Z"
         id="path983" /></clipPath><clipPath
       clipPathUnits="userSpaceOnUse"
       id="clipPath1001"><path
         d="M 0,595.276 H 841.89 V 0 H 0 Z"
         id="path999" /></clipPath><clipPath
       clipPathUnits="userSpaceOnUse"
       id="clipPath1017"><path
         d="M 0,595.276 H 841.89 V 0 H 0 Z"
         id="path1015" /></clipPath><clipPath
       clipPathUnits="userSpaceOnUse"
       id="clipPath1035"><path
         d="M 0,595.276 H 841.89 V 0 H 0 Z"
         id="path1033" /></clipPath><clipPath
       clipPathUnits="userSpaceOnUse"
       id="clipPath1059"><path
         d="M 0,595.276 H 841.89 V 0 H 0 Z"
         id="path1057" /></clipPath><clipPath
       clipPathUnits="userSpaceOnUse"
       id="clipPath1073"><path
         d="M 0,595.276 H 841.89 V 0 H 0 Z"
         id="path1071" /></clipPath><clipPath
       clipPathUnits="userSpaceOnUse"
       id="clipPath1105"><path
         d="M 0,595.276 H 841.89 V 0 H 0 Z"
         id="path1103" /></clipPath><clipPath
       clipPathUnits="userSpaceOnUse"
       id="clipPath1133"><path
         d="M 0,595.276 H 841.89 V 0 H 0 Z"
         id="path1131" /></clipPath><clipPath
       clipPathUnits="userSpaceOnUse"
       id="clipPath1153"><path
         d="M 0,595.276 H 841.89 V 0 H 0 Z"
         id="path1151" /></clipPath><clipPath
       clipPathUnits="userSpaceOnUse"
       id="clipPath1167"><path
         d="M 0,595.276 H 841.89 V 0 H 0 Z"
         id="path1165" /></clipPath><clipPath
       clipPathUnits="userSpaceOnUse"
       id="clipPath1191"><path
         d="M 0,595.276 H 841.89 V 0 H 0 Z"
         id="path1189" /></clipPath><clipPath
       clipPathUnits="userSpaceOnUse"
       id="clipPath1215"><path
         d="M 0,595.276 H 841.89 V 0 H 0 Z"
         id="path1213" /></clipPath><clipPath
       clipPathUnits="userSpaceOnUse"
       id="clipPath1237"><path
         d="M 0,595.276 H 841.89 V 0 H 0 Z"
         id="path1235" /></clipPath><clipPath
       clipPathUnits="userSpaceOnUse"
       id="clipPath1253"><path
         d="M 0,595.276 H 841.89 V 0 H 0 Z"
         id="path1251" /></clipPath><clipPath
       clipPathUnits="userSpaceOnUse"
       id="clipPath1289"><path
         d="M 0,595.276 H 841.89 V 0 H 0 Z"
         id="path1287" /></clipPath></defs><sodipodi:namedview
     pagecolor="#ffffff"
     bordercolor="#666666"
     borderopacity="1"
     objecttolerance="10"
     gridtolerance="10"
     guidetolerance="10"
     inkscape:pageopacity="0"
     inkscape:pageshadow="2"
     inkscape:window-width="1920"
     inkscape:window-height="1015"
     id="namedview853"
     showgrid="false"
     inkscape:zoom="1.4414726"
     inkscape:cx="121.75049"
     inkscape:cy="-33.29928"
     inkscape:window-x="0"
     inkscape:window-y="0"
     inkscape:window-maximized="1"
     inkscape:current-layer="g859"
     showguides="false"
     inkscape:pagecheckerboard="0"
     fit-margin-top="0"
     fit-margin-left="0"
     fit-margin-right="0"
     fit-margin-bottom="0" /><g
     id="g859"
     inkscape:groupmode="layer"
     inkscape:label="logo utnba"
     transform="matrix(1.3333333,0,0,-1.3333333,-459.21279,271.64306)"><text
       transform="matrix(1,0,0,-1,60,31.2754)"
       style="font-variant:normal;font-weight:normal;font-stretch:normal;font-size:8px;font-family:'Myriad Pro';-inkscape-font-specification:HelveticaNeueLTStd-Roman;writing-mode:lr-tb;fill:#bb3048;fill-opacity:1;fill-rule:nonzero;stroke:none"
       id="text863"><tspan
         x="0 6.6719999 10.528 14.968 19.375999 23.232 25.120001 26.816 31.327999 35.335999 37.032001 41.472 45.863998 48.48 55.152 59.007999 62.175999 63.872002 68.424004 72.279999 75.447998 77.32 80.903999 84.760002"
         y="0"
         sodipodi:role="line"
         id="tspan861">manual de normas básicas</tspan></text><g
       id="g865"
       transform="translate(60,43.0195)"><path
         d="M 0,0 H 755.97"
         style="fill:none;stroke:#bb3048;stroke-width:0.5;stroke-linecap:butt;stroke-linejoin:miter;stroke-miterlimit:4;stroke-dasharray:none;stroke-opacity:1"
         id="path867" /></g><text
       transform="matrix(1,0,0,-1,773.5942,31.2754)"
       style="font-variant:normal;font-weight:normal;font-stretch:normal;font-size:8px;font-family:'Myriad Pro';-inkscape-font-specification:HelveticaNeueLTStd-Roman;writing-mode:lr-tb;fill:#bb3048;fill-opacity:1;fill-rule:nonzero;stroke:none"
       id="text871"><tspan
         x="0 5.1760001 9.1520004 14.416 16.072001 20.408001 25.304001 27 28.656 32.759998"
         y="0"
         sodipodi:role="line"
         id="tspan869">UTN.BA .11</tspan></text><text
       transform="matrix(1,0,0,-1,60,451.2754)"
       style="font-variant:normal;font-weight:normal;font-stretch:normal;font-size:9px;font-family:'Myriad Pro';-inkscape-font-specification:HelveticaNeueLTStd-Hv;writing-mode:lr-tb;fill:#bb3048;fill-opacity:1;fill-rule:nonzero;stroke:none"
       id="text875"><tspan
         x="0 4.428 6.552 8.46 10.566 14.13 19.070999 21.195 26.136 31.167"
         y="0"
         sodipodi:role="line"
         id="tspan873">El isologo</tspan></text><text
       transform="matrix(1,0,0,-1,60,439.2784)"
       style="font-variant:normal;font-weight:normal;font-stretch:normal;font-size:9px;font-family:'Myriad Pro';-inkscape-font-specification:HelveticaNeueLTStd-Roman;writing-mode:lr-tb;fill:#231f20;fill-opacity:1;fill-rule:nonzero;stroke:none"
       id="text881"><tspan
         x="0 4.527 9.0360003 11.979 15.543 17.649 22.59 27.584999 32.094002 35.658001 37.566002 41.598 46.106998 51.102001 54.081001 57.023998 61.362 66.438004 70.776001 72.683998 76.922997 78.831001 86.336998 90.675003 93.375 98.405998 100.512 105.507 109.845 114.921 119.259 121.167 125.199 130.14 135.13499"
         y="0"
         sodipodi:role="line"
         id="tspan877">Versiones centrada y marginada con </tspan><tspan
         x="0 4.5089998 6.6329999 8.5410004 13.536 18.476999 25.983 31.104 33.884998 38.394001 40.301998 44.334 49.275002 56.780998 61.902 64.026001 68.535004 71.514 76.455002 78.318001"
         y="11.997"
         sodipodi:role="line"
         id="tspan879">el nombre completo. </tspan></text><text
       transform="matrix(1,0,0,-1,60,403.2784)"
       style="font-variant:normal;font-weight:normal;font-stretch:normal;font-size:9px;font-family:'Myriad Pro';-inkscape-font-specification:HelveticaNeueLTStd-Hv;writing-mode:lr-tb;fill:#bb3048;fill-opacity:1;fill-rule:nonzero;stroke:none"
       id="text885"><tspan
         x="0 5.2199998 10.161 12.285 17.226 20.007 24.516001"
         y="0"
         sodipodi:role="line"
         id="tspan883">Colores</tspan></text><text
       transform="matrix(1,0,0,-1,60,391.2814)"
       style="font-variant:normal;font-weight:normal;font-stretch:normal;font-size:9px;font-family:'Myriad Pro';-inkscape-font-specification:HelveticaNeueLTStd-Roman;writing-mode:lr-tb;fill:#231f20;fill-opacity:1;fill-rule:nonzero;stroke:none"
       id="text893"><tspan
         x="0 4.4369998 8.9460001 10.854 14.886 19.827 27.333 32.453999 37.395 42.389999 46.898998 48.806999 52.839001 57.779999 62.775002 64.682999 66.806999 71.748001 75.311996 77.220001 81.251999 86.193001 88.317001 93.258003 96.047997 100.557"
         y="0"
         sodipodi:role="line"
         id="tspan887">Se compone con los colores</tspan><tspan
         x="0 4.9949999 9.5039997 14.535 17.316"
         y="11.997"
         sodipodi:role="line"
         id="tspan889">negro</tspan><tspan
         x="0 5.1209998 9.4589996 14.454 17.433001 22.374001 27.368999 31.878 33.785999 38.403 43.02"
         y="23.993999"
         sodipodi:role="line"
         id="tspan891">pantone 200</tspan></text><path
       d="m 50.052,379.275 h 4.632 v 4.632 h -4.632 z"
       style="fill:#231f20;fill-opacity:1;fill-rule:nonzero;stroke:none"
       id="path895" /><path
       d="m 50.052,367.275 h 4.632 v 4.632 h -4.632 z"
       style="fill:#bb3048;fill-opacity:1;fill-rule:nonzero;stroke:none"
       id="path897" /><g
       id="g1586"
       transform="translate(0,0.13217095)"><path
         d="m 387.2246,122.5293 c -19.969,0 -36.212,16.243 -36.212,36.211 0,19.969 16.243,36.211 36.212,36.211 19.965,0 36.209,-16.242 36.209,-36.211 0,-19.968 -16.244,-36.211 -36.209,-36.211 m 0,70.484 c -18.9,0 -34.274,-15.376 -34.274,-34.273 0,-18.898 15.374,-34.273 34.274,-34.273 18.896,0 34.272,15.375 34.272,34.273 0,18.897 -15.376,34.273 -34.272,34.273"
         style="fill:#050301;fill-opacity:1;fill-rule:nonzero;stroke:none"
         id="path1305" /><path
         d="m 387.2246,115.9258 c -23.61,0 -42.815,19.205 -42.815,42.814 0,23.609 19.205,42.815 42.815,42.815 23.608,0 42.813,-19.206 42.813,-42.815 0,-23.609 -19.205,-42.814 -42.813,-42.814 m 0,83.689 c -22.539,0 -40.877,-18.334 -40.877,-40.875 0,-22.538 18.338,-40.874 40.877,-40.874 22.538,0 40.874,18.336 40.874,40.874 0,22.541 -18.336,40.875 -40.874,40.875"
         style="fill:#050301;fill-opacity:1;fill-rule:nonzero;stroke:none"
         id="path1309" /><path
         d="m 404.791,161.5361 h -13.819 c 8.097,1.892 13.792,9.303 13.792,16.646 0,0.272 -0.01,0.546 -0.023,0.818 h -6.875 c 0.001,-0.081 0.008,-0.16 0.008,-0.239 0,-4.867 -3.334,-8.966 -7.887,-10.252 v 10.491 h -6.052 v -10.491 c -4.55,1.286 -7.882,5.385 -7.882,10.252 0,0.079 0.005,0.158 0.006,0.239 h -6.826 c -0.013,-0.272 -0.02,-0.546 -0.02,-0.818 0,-7.414 5.646,-14.766 13.721,-16.646 h -13.76 v -6.132 h 13.909 c -8.153,-1.824 -13.87,-9.221 -13.87,-16.68 0,-0.272 0.007,-0.546 0.02,-0.817 h 6.826 c -0.001,0.078 -0.006,0.159 -0.006,0.241 0,4.864 3.332,8.965 7.882,10.247 v -10.398 h 6.052 v 10.398 c 4.553,-1.282 7.887,-5.383 7.887,-10.247 0,-0.082 -0.007,-0.163 -0.008,-0.241 h 6.875 c 0.013,0.271 0.023,0.545 0.023,0.817 0,7.386 -5.763,14.847 -13.937,16.68 h 13.964 z"
         style="fill:#231f20;fill-opacity:1;fill-rule:nonzero;stroke:none"
         id="path1313" /></g><g
       id="g1789"><g
         id="g1718"
         transform="translate(0.07025)"><path
           d="m 447.2817,202.8242 h 7.146 v -23.779 c 0,-5.488 0.343,-11.834 9.603,-11.834 9.26,0 9.603,6.346 9.603,11.834 v 23.779 h 7.147 v -26.121 c 0,-10.464 -6.69,-15.664 -16.75,-15.664 -10.06,0 -16.749,5.2 -16.749,15.664 z"
           style="fill:#171316;fill-opacity:1;fill-rule:nonzero;stroke:none"
           id="path1533" /><path
           d="m 558.2085,161.9463 h -7.146 v 23.778 c 0,5.491 -0.343,11.835 -9.603,11.835 -9.261,0 -9.605,-6.344 -9.605,-11.835 v -23.778 h -7.145 v 26.12 c 0,10.465 6.689,15.666 16.75,15.666 10.06,0 16.749,-5.201 16.749,-15.666 z"
           style="fill:#171316;fill-opacity:1;fill-rule:nonzero;stroke:none"
           id="path1537" /><path
           d="m 486.6577,202.8242 h 33.035 v -6.172 h -12.972 v -34.641 h -7.143 v 34.641 h -12.92 z"
           style="fill:#171316;fill-opacity:1;fill-rule:nonzero;stroke:none"
           id="path1541" /><path
           d="m 602.5708,167.8408 h -12.634 v 29.154 h 11.661 c 3.886,0 6,-1.487 6,-5.601 0,-3.657 -2.569,-5.662 -6,-5.662 h -12.048 v -5.144 h 13.021 c 4.343,0 6.857,-2.286 6.857,-6.285 0,-4.12 -2.514,-6.462 -6.857,-6.462 m 6.344,16.063 v 0.115 c 3.716,1.601 5.832,4.577 5.832,8.69 0,6.805 -4.804,10.115 -12.121,10.115 h -19.836 v -40.812 h 18.75 c 10.575,0 15.036,4.974 15.036,11.374 0,5.545 -2.687,9.433 -7.661,10.518"
           style="fill:#bb3048;fill-opacity:1;fill-rule:nonzero;stroke:none"
           id="path1545" /><path
           d="m 631.1099,178.2461 v 7.479 c 0,5.486 0.341,11.834 9.603,11.834 9.262,0 9.602,-6.348 9.602,-11.834 v -7.479 z m 9.603,25.486 c -10.061,0 -16.75,-5.201 -16.75,-15.666 v -26.12 h 7.147 v 10.856 h 19.205 v -10.856 h 7.147 v 26.12 c 0,10.465 -6.688,15.666 -16.749,15.666"
           style="fill:#bb3048;fill-opacity:1;fill-rule:nonzero;stroke:none"
           id="path1549" /><path
           d="m 570.6948,170.0586 c 1.259,0 2.342,-0.457 3.247,-1.363 0.905,-0.914 1.355,-2 1.355,-3.259 0,-1.256 -0.45,-2.326 -1.347,-3.203 -0.9,-0.881 -1.984,-1.321 -3.255,-1.321 -1.319,0 -2.406,0.427 -3.262,1.282 -0.854,0.854 -1.279,1.937 -1.279,3.265 0,1.282 0.441,2.368 1.328,3.262 0.887,0.89 1.957,1.337 3.213,1.337"
           style="fill:#171316;fill-opacity:1;fill-rule:nonzero;stroke:none"
           id="path1553" /></g><g
         id="g1710"><g
           id="g1618"><path
             d="m 453.5444,143.8965 c 0,-1.977 -1.129,-3.018 -3.082,-3.018 -2.021,0 -3.215,0.934 -3.215,3.018 v 5.003 h 1.042 v -5.003 c 0,-1.383 0.788,-2.141 2.173,-2.141 1.315,0 2.04,0.758 2.04,2.141 v 5.003 h 1.042 z"
             style="fill:#1d191b;fill-opacity:1;fill-rule:nonzero;stroke:none"
             id="path1317" /><path
             d="m 455.1978,148.8994 h 1.111 l 4.124,-6.354 h 0.021 v 6.354 h 0.989 v -7.834 h -1.141 l -4.094,6.287 h -0.022 v -6.287 h -0.988 z"
             style="fill:#1d191b;fill-opacity:1;fill-rule:nonzero;stroke:none"
             id="path1321" /><path
             d="m 463.175,148.899 h 1.04 v -7.834 h -1.04 z"
             style="fill:#1d191b;fill-opacity:1;fill-rule:nonzero;stroke:none"
             id="path1323" /><path
             d="m 469.0542,141.0654 h -1.185 l -2.767,7.834 h 1.132 l 2.239,-6.791 h 0.02 l 2.262,6.791 h 1.086 z"
             style="fill:#1d191b;fill-opacity:1;fill-rule:nonzero;stroke:none"
             id="path1327" /><path
             d="m 472.6743,148.8994 h 5.408 v -0.878 h -4.366 v -2.491 h 4.069 v -0.877 h -4.069 v -2.711 h 4.4 v -0.877 h -5.442 z"
             style="fill:#1d191b;fill-opacity:1;fill-rule:nonzero;stroke:none"
             id="path1331" /><path
             d="m 479.3745,148.8994 h 3.687 c 1.471,0 2.381,-0.802 2.381,-2.052 0,-0.944 -0.418,-1.723 -1.36,-1.985 v -0.024 c 0.912,-0.174 1.098,-0.844 1.175,-1.611 0.065,-0.768 0.021,-1.625 0.461,-2.162 h -1.164 c -0.295,0.318 -0.129,1.162 -0.287,1.931 -0.108,0.767 -0.296,1.415 -1.303,1.415 h -2.546 v -3.346 h -1.044 z m 3.214,-3.61 c 0.976,0 1.811,0.253 1.811,1.394 0,0.768 -0.417,1.338 -1.392,1.338 h -2.589 v -2.732 z"
             style="fill:#1d191b;fill-opacity:1;fill-rule:nonzero;stroke:none"
             id="path1335" /><path
             d="m 491.4214,146.6055 c -0.122,1.12 -0.868,1.603 -1.94,1.603 -0.879,0 -1.758,-0.318 -1.758,-1.34 0,-0.965 1.251,-1.108 2.514,-1.393 1.249,-0.286 2.498,-0.724 2.498,-2.259 0,-1.668 -1.631,-2.338 -3.059,-2.338 -1.755,0 -3.236,0.856 -3.236,2.764 h 0.989 c 0,-1.316 1.096,-1.886 2.28,-1.886 0.942,0 1.986,0.295 1.986,1.426 0,1.075 -1.251,1.262 -2.502,1.536 -1.251,0.275 -2.515,0.636 -2.515,2.075 0,1.59 1.416,2.292 2.847,2.292 1.599,0 2.819,-0.756 2.884,-2.48 z"
             style="fill:#1d191b;fill-opacity:1;fill-rule:nonzero;stroke:none"
             id="path1339" /><path
             d="m 494.041,148.899 h 1.042 v -7.834 h -1.042 z"
             style="fill:#1d191b;fill-opacity:1;fill-rule:nonzero;stroke:none"
             id="path1341" /><path
             d="m 496.8384,148.8994 h 2.688 c 2.415,0 3.764,-1.206 3.764,-3.731 0,-2.623 -1.153,-4.103 -3.764,-4.103 h -2.688 z m 1.042,-6.957 h 1.733 c 0.714,0 2.634,0.199 2.634,3.083 0,1.865 -0.691,2.996 -2.612,2.996 h -1.755 z"
             style="fill:#1d191b;fill-opacity:1;fill-rule:nonzero;stroke:none"
             id="path1345" /><path
             d="m 506.6899,148.8994 h 1.151 l 3.062,-7.834 h -1.152 l -0.856,2.357 h -3.313 l -0.876,-2.357 h -1.079 z m -0.78,-4.598 h 2.656 l -1.305,3.655 h -0.023 z"
             style="fill:#1d191b;fill-opacity:1;fill-rule:nonzero;stroke:none"
             id="path1349" /><path
             d="m 511.6675,148.8994 h 2.691 c 2.414,0 3.761,-1.206 3.761,-3.731 0,-2.623 -1.151,-4.103 -3.761,-4.103 h -2.691 z m 1.044,-6.957 h 1.733 c 0.715,0 2.633,0.199 2.633,3.083 0,1.865 -0.689,2.996 -2.611,2.996 h -1.755 z"
             style="fill:#1d191b;fill-opacity:1;fill-rule:nonzero;stroke:none"
             id="path1353" /><path
             d="m 524.2212,148.0205 h -2.614 v 0.878 h 6.265 v -0.878 h -2.611 v -6.956 h -1.04 z"
             style="fill:#1d191b;fill-opacity:1;fill-rule:nonzero;stroke:none"
             id="path1357" /><path
             d="m 528.7368,148.8994 h 5.41 v -0.878 h -4.366 v -2.491 h 4.069 v -0.877 h -4.069 v -2.711 h 4.4 v -0.877 h -5.444 z"
             style="fill:#1d191b;fill-opacity:1;fill-rule:nonzero;stroke:none"
             id="path1361" /><path
             d="m 540.9487,146.5391 c -0.222,1.109 -1.108,1.669 -2.195,1.669 -1.866,0 -2.657,-1.535 -2.657,-3.172 0,-1.788 0.791,-3.28 2.667,-3.28 1.373,0 2.164,0.966 2.26,2.262 h 1.044 c -0.199,-1.954 -1.416,-3.139 -3.39,-3.139 -2.438,0 -3.623,1.799 -3.623,4.08 0,2.272 1.296,4.127 3.709,4.127 1.635,0 2.984,-0.878 3.225,-2.547 z"
             style="fill:#1d191b;fill-opacity:1;fill-rule:nonzero;stroke:none"
             id="path1365" /><path
             d="m 543.3481,148.8994 h 1.106 l 4.127,-6.354 h 0.023 v 6.354 h 0.989 v -7.834 h -1.142 l -4.093,6.287 h -0.023 v -6.287 h -0.987 z"
             style="fill:#1d191b;fill-opacity:1;fill-rule:nonzero;stroke:none"
             id="path1369" /><path
             d="m 554.5913,149.0859 c 2.492,0 3.753,-1.975 3.753,-4.104 0,-2.129 -1.261,-4.103 -3.753,-4.103 -2.489,0 -3.753,1.974 -3.753,4.103 0,2.129 1.264,4.104 3.753,4.104 m 0,-7.33 c 1.91,0 2.712,1.646 2.712,3.226 0,1.579 -0.802,3.227 -2.712,3.227 -1.907,0 -2.709,-1.648 -2.709,-3.227 0,-1.58 0.802,-3.226 2.709,-3.226"
             style="fill:#1d191b;fill-opacity:1;fill-rule:nonzero;stroke:none"
             id="path1373" /><path
             d="m 559.6147,148.8994 h 1.044 v -6.957 h 4.146 v -0.877 h -5.19 z"
             style="fill:#1d191b;fill-opacity:1;fill-rule:nonzero;stroke:none"
             id="path1377" /><path
             d="m 569.0278,149.0859 c 2.49,0 3.753,-1.975 3.753,-4.104 0,-2.129 -1.263,-4.103 -3.753,-4.103 -2.489,0 -3.753,1.974 -3.753,4.103 0,2.129 1.264,4.104 3.753,4.104 m 0,-7.33 c 1.908,0 2.71,1.646 2.71,3.226 0,1.579 -0.802,3.227 -2.71,3.227 -1.908,0 -2.711,-1.648 -2.711,-3.227 0,-1.58 0.803,-3.226 2.711,-3.226 m 0.276,9.272 h 1.196 l -1.438,-1.568 h -0.701 z"
             style="fill:#1d191b;fill-opacity:1;fill-rule:nonzero;stroke:none"
             id="path1381" /><path
             d="m 579.9097,142.041 c -0.603,-0.821 -1.59,-1.162 -2.51,-1.162 -2.34,0 -3.733,1.909 -3.733,3.949 0,2.283 1.252,4.258 3.733,4.258 1.709,0 3.071,-0.769 3.365,-2.601 h -1.043 c -0.206,1.184 -1.162,1.723 -2.322,1.723 -1.9,0 -2.689,-1.646 -2.689,-3.324 0,-1.636 0.942,-3.127 2.689,-3.127 1.611,0 2.574,1.13 2.51,2.556 h -2.5 v 0.876 h 3.433 v -4.124 h -0.658 z"
             style="fill:#1d191b;fill-opacity:1;fill-rule:nonzero;stroke:none"
             id="path1385" /><path
             d="m 582.421,148.899 h 1.044 v -7.834 h -1.044 z"
             style="fill:#1d191b;fill-opacity:1;fill-rule:nonzero;stroke:none"
             id="path1387" /><path
             d="m 590.7251,146.5391 c -0.218,1.109 -1.106,1.669 -2.192,1.669 -1.867,0 -2.657,-1.535 -2.657,-3.172 0,-1.788 0.79,-3.28 2.667,-3.28 1.37,0 2.16,0.966 2.259,2.262 h 1.043 c -0.195,-1.954 -1.415,-3.139 -3.39,-3.139 -2.435,0 -3.622,1.799 -3.622,4.08 0,2.272 1.295,4.127 3.71,4.127 1.632,0 2.984,-0.878 3.224,-2.547 z"
             style="fill:#1d191b;fill-opacity:1;fill-rule:nonzero;stroke:none"
             id="path1391" /><path
             d="m 595.2661,148.8994 h 1.152 l 3.062,-7.834 h -1.153 l -0.854,2.357 h -3.316 l -0.876,-2.357 h -1.076 z m -0.778,-4.598 h 2.655 l -1.306,3.655 h -0.021 z"
             style="fill:#1d191b;fill-opacity:1;fill-rule:nonzero;stroke:none"
             id="path1395" /><path
             d="m 603.2847,148.8994 h 1.107 l 4.127,-6.354 h 0.021 v 6.354 h 0.987 v -7.834 h -1.141 l -4.091,6.287 h -0.025 v -6.287 h -0.985 z"
             style="fill:#1d191b;fill-opacity:1;fill-rule:nonzero;stroke:none"
             id="path1399" /><path
             d="m 613.3462,148.8994 h 1.149 l 3.063,-7.834 h -1.153 l -0.856,2.357 h -3.315 l -0.876,-2.357 h -1.077 z m -0.781,-4.598 h 2.655 l -1.305,3.655 h -0.023 z"
             style="fill:#1d191b;fill-opacity:1;fill-rule:nonzero;stroke:none"
             id="path1403" /><path
             d="m 623.8325,146.5391 c -0.219,1.109 -1.106,1.669 -2.197,1.669 -1.864,0 -2.655,-1.535 -2.655,-3.172 0,-1.788 0.791,-3.28 2.668,-3.28 1.371,0 2.16,0.966 2.261,2.262 h 1.04 c -0.196,-1.954 -1.416,-3.139 -3.388,-3.139 -2.436,0 -3.623,1.799 -3.623,4.08 0,2.272 1.295,4.127 3.71,4.127 1.634,0 2.985,-0.878 3.224,-2.547 z"
             style="fill:#1d191b;fill-opacity:1;fill-rule:nonzero;stroke:none"
             id="path1407" /><path
             d="m 626.287,148.899 h 1.042 v -7.834 h -1.042 z"
             style="fill:#1d191b;fill-opacity:1;fill-rule:nonzero;stroke:none"
             id="path1409" /><path
             d="m 632.3979,149.0859 c 2.49,0 3.751,-1.975 3.751,-4.104 0,-2.129 -1.261,-4.103 -3.751,-4.103 -2.492,0 -3.754,1.974 -3.754,4.103 0,2.129 1.262,4.104 3.754,4.104 m 0,-7.33 c 1.91,0 2.709,1.646 2.709,3.226 0,1.579 -0.799,3.227 -2.709,3.227 -1.911,0 -2.709,-1.648 -2.709,-3.227 0,-1.58 0.798,-3.226 2.709,-3.226"
             style="fill:#1d191b;fill-opacity:1;fill-rule:nonzero;stroke:none"
             id="path1413" /><path
             d="m 637.4097,148.8994 h 1.109 l 4.126,-6.354 h 0.021 v 6.354 h 0.987 v -7.834 h -1.139 l -4.093,6.287 h -0.023 v -6.287 h -0.988 z"
             style="fill:#1d191b;fill-opacity:1;fill-rule:nonzero;stroke:none"
             id="path1417" /><path
             d="m 647.4692,148.8994 h 1.151 l 3.062,-7.834 h -1.152 l -0.856,2.357 h -3.314 l -0.877,-2.357 h -1.076 z m -0.78,-4.598 h 2.655 l -1.306,3.655 h -0.021 z"
             style="fill:#1d191b;fill-opacity:1;fill-rule:nonzero;stroke:none"
             id="path1421" /><path
             d="m 652.4487,148.8994 h 1.044 v -6.957 h 4.144 v -0.877 h -5.188 z"
             style="fill:#1d191b;fill-opacity:1;fill-rule:nonzero;stroke:none"
             id="path1425" /></g><g
           id="g1647"
           transform="translate(0,0.57582094)"><path
             d="m 455.6108,135.7363 h 5.145 v -0.879 h -4.105 v -2.49 h 3.602 v -0.878 h -3.602 v -3.588 h -1.04 z"
             style="fill:#1d191b;fill-opacity:1;fill-rule:nonzero;stroke:none"
             id="path1429" /><path
             d="m 463.4341,135.7363 h 1.149 l 3.064,-7.835 h -1.153 l -0.857,2.359 h -3.314 l -0.875,-2.359 h -1.078 z m -0.781,-4.598 h 2.655 l -1.303,3.654 h -0.025 z"
             style="fill:#1d191b;fill-opacity:1;fill-rule:nonzero;stroke:none"
             id="path1433" /><path
             d="m 473.9194,133.376 c -0.218,1.109 -1.106,1.668 -2.195,1.668 -1.867,0 -2.655,-1.536 -2.655,-3.17 0,-1.788 0.788,-3.281 2.667,-3.281 1.371,0 2.16,0.966 2.26,2.261 h 1.041 c -0.195,-1.954 -1.414,-3.138 -3.389,-3.138 -2.434,0 -3.621,1.8 -3.621,4.081 0,2.27 1.295,4.126 3.709,4.126 1.634,0 2.985,-0.879 3.225,-2.547 z"
             style="fill:#1d191b;fill-opacity:1;fill-rule:nonzero;stroke:none"
             id="path1437" /><path
             d="m 482.5854,130.7314 c 0,-1.974 -1.13,-3.016 -3.082,-3.016 -2.021,0 -3.217,0.932 -3.217,3.016 v 5.005 h 1.043 v -5.005 c 0,-1.381 0.791,-2.139 2.174,-2.139 1.316,0 2.04,0.758 2.04,2.139 v 5.005 h 1.042 z"
             style="fill:#1d191b;fill-opacity:1;fill-rule:nonzero;stroke:none"
             id="path1441" /><path
             d="m 484.2505,135.7363 h 1.042 v -6.957 h 4.148 v -0.878 h -5.19 z"
             style="fill:#1d191b;fill-opacity:1;fill-rule:nonzero;stroke:none"
             id="path1445" /><path
             d="m 491.1187,134.8574 h -2.613 v 0.879 h 6.265 v -0.879 h -2.608 v -6.956 h -1.044 z"
             style="fill:#1d191b;fill-opacity:1;fill-rule:nonzero;stroke:none"
             id="path1449" /><path
             d="m 496.7583,135.7363 h 1.15 l 3.063,-7.835 h -1.153 l -0.857,2.359 h -3.31 l -0.881,-2.359 h -1.075 z m -0.78,-4.598 h 2.654 l -1.304,3.654 h -0.02 z"
             style="fill:#1d191b;fill-opacity:1;fill-rule:nonzero;stroke:none"
             id="path1453" /><path
             d="m 501.7368,135.7363 h 2.688 c 2.415,0 3.764,-1.209 3.764,-3.731 0,-2.623 -1.152,-4.104 -3.764,-4.104 h -2.688 z m 1.04,-6.957 h 1.734 c 0.715,0 2.636,0.198 2.636,3.084 0,1.864 -0.692,2.994 -2.612,2.994 h -1.758 z"
             style="fill:#1d191b;fill-opacity:1;fill-rule:nonzero;stroke:none"
             id="path1457" /><path
             d="m 512.5073,135.7363 h 3.688 c 1.469,0 2.379,-0.802 2.379,-2.051 0,-0.945 -0.416,-1.725 -1.359,-1.987 v -0.023 c 0.91,-0.175 1.097,-0.844 1.175,-1.611 0.065,-0.769 0.021,-1.626 0.461,-2.163 h -1.165 c -0.294,0.319 -0.131,1.164 -0.284,1.932 -0.11,0.768 -0.295,1.416 -1.307,1.416 h -2.544 v -3.348 h -1.044 z m 3.216,-3.611 c 0.977,0 1.81,0.253 1.81,1.394 0,0.769 -0.416,1.338 -1.394,1.338 h -2.588 v -2.732 z"
             style="fill:#1d191b;fill-opacity:1;fill-rule:nonzero;stroke:none"
             id="path1461" /><path
             d="m 520.021,135.7363 h 5.411 v -0.879 h -4.367 v -2.49 h 4.069 v -0.878 h -4.069 v -2.71 h 4.4 v -0.878 h -5.444 z"
             style="fill:#1d191b;fill-opacity:1;fill-rule:nonzero;stroke:none"
             id="path1465" /><path
             d="m 532.5835,128.877 c -0.602,-0.821 -1.592,-1.161 -2.513,-1.161 -2.339,0 -3.731,1.907 -3.731,3.949 0,2.282 1.251,4.258 3.731,4.258 1.712,0 3.075,-0.769 3.371,-2.602 h -1.046 c -0.207,1.186 -1.162,1.723 -2.325,1.723 -1.898,0 -2.685,-1.644 -2.685,-3.324 0,-1.634 0.94,-3.127 2.685,-3.127 1.614,0 2.578,1.132 2.513,2.556 h -2.502 v 0.878 h 3.436 v -4.126 h -0.66 z"
             style="fill:#1d191b;fill-opacity:1;fill-rule:nonzero;stroke:none"
             id="path1469" /><path
             d="m 535.094,135.736 h 1.042 v -7.835 h -1.042 z"
             style="fill:#1d191b;fill-opacity:1;fill-rule:nonzero;stroke:none"
             id="path1471" /><path
             d="m 541.2046,135.9219 c 2.49,0 3.754,-1.975 3.754,-4.102 0,-2.129 -1.264,-4.105 -3.754,-4.105 -2.49,0 -3.753,1.976 -3.753,4.105 0,2.127 1.263,4.102 3.753,4.102 m 0,-7.329 c 1.911,0 2.71,1.645 2.71,3.227 0,1.581 -0.799,3.224 -2.71,3.224 -1.908,0 -2.709,-1.643 -2.709,-3.224 0,-1.582 0.801,-3.227 2.709,-3.227"
             style="fill:#1d191b;fill-opacity:1;fill-rule:nonzero;stroke:none"
             id="path1475" /><path
             d="m 546.2163,135.7363 h 1.109 l 4.125,-6.354 h 0.022 v 6.354 h 0.987 v -7.835 h -1.141 l -4.091,6.288 h -0.023 v -6.288 h -0.988 z"
             style="fill:#1d191b;fill-opacity:1;fill-rule:nonzero;stroke:none"
             id="path1479" /><path
             d="m 556.2759,135.7363 h 1.152 l 3.062,-7.835 h -1.153 l -0.854,2.359 h -3.314 l -0.878,-2.359 h -1.075 z m -0.778,-4.598 h 2.655 l -1.308,3.654 h -0.021 z"
             style="fill:#1d191b;fill-opacity:1;fill-rule:nonzero;stroke:none"
             id="path1483" /><path
             d="m 561.2563,135.7363 h 1.041 v -6.957 h 4.149 v -0.878 h -5.19 z"
             style="fill:#1d191b;fill-opacity:1;fill-rule:nonzero;stroke:none"
             id="path1487" /><path
             d="m 570.4048,135.7363 h 2.841 c 0.693,0 1.6,0 2.074,-0.285 0.516,-0.308 0.92,-0.867 0.92,-1.636 0,-0.834 -0.438,-1.459 -1.161,-1.756 v -0.021 c 0.966,-0.197 1.492,-0.921 1.492,-1.886 0,-1.152 -0.823,-2.251 -2.379,-2.251 h -3.787 z m 1.042,-3.369 h 2.084 c 1.184,0 1.667,0.428 1.667,1.251 0,1.086 -0.767,1.239 -1.667,1.239 h -2.084 z m 0,-3.588 h 2.608 c 0.903,0 1.473,0.548 1.473,1.405 0,1.02 -0.821,1.305 -1.7,1.305 h -2.381 z"
             style="fill:#1d191b;fill-opacity:1;fill-rule:nonzero;stroke:none"
             id="path1491" /><path
             d="m 584.1724,130.7314 c 0,-1.974 -1.13,-3.016 -3.084,-3.016 -2.019,0 -3.215,0.932 -3.215,3.016 v 5.005 h 1.043 v -5.005 c 0,-1.381 0.789,-2.139 2.172,-2.139 1.318,0 2.04,0.758 2.04,2.139 v 5.005 h 1.044 z"
             style="fill:#1d191b;fill-opacity:1;fill-rule:nonzero;stroke:none"
             id="path1495" /><path
             d="m 585.8394,135.7363 h 5.408 v -0.879 h -4.368 v -2.49 h 4.073 v -0.878 h -4.073 v -2.71 h 4.402 v -0.878 h -5.442 z"
             style="fill:#1d191b;fill-opacity:1;fill-rule:nonzero;stroke:none"
             id="path1499" /><path
             d="m 592.5288,135.7363 h 1.107 l 4.127,-6.354 h 0.021 v 6.354 h 0.99 v -7.835 h -1.141 l -4.093,6.288 h -0.023 v -6.288 h -0.988 z"
             style="fill:#1d191b;fill-opacity:1;fill-rule:nonzero;stroke:none"
             id="path1503" /><path
             d="m 603.7729,135.9219 c 2.491,0 3.753,-1.975 3.753,-4.102 0,-2.129 -1.262,-4.105 -3.753,-4.105 -2.49,0 -3.754,1.976 -3.754,4.105 0,2.127 1.264,4.102 3.754,4.102 m 0,-7.329 c 1.909,0 2.711,1.645 2.711,3.227 0,1.581 -0.802,3.224 -2.711,3.224 -1.906,0 -2.709,-1.643 -2.709,-3.224 0,-1.582 0.803,-3.227 2.709,-3.227"
             style="fill:#1d191b;fill-opacity:1;fill-rule:nonzero;stroke:none"
             id="path1507" /><path
             d="m 613.3276,133.4424 c -0.121,1.12 -0.865,1.602 -1.94,1.602 -0.877,0 -1.756,-0.318 -1.756,-1.338 0,-0.966 1.252,-1.109 2.51,-1.393 1.251,-0.286 2.504,-0.725 2.504,-2.26 0,-1.671 -1.633,-2.339 -3.06,-2.339 -1.756,0 -3.238,0.857 -3.238,2.766 h 0.989 c 0,-1.317 1.095,-1.887 2.282,-1.887 0.941,0 1.983,0.295 1.983,1.426 0,1.075 -1.249,1.262 -2.5,1.537 -1.251,0.274 -2.512,0.637 -2.512,2.073 0,1.591 1.415,2.292 2.842,2.292 1.601,0 2.82,-0.756 2.883,-2.479 z"
             style="fill:#1d191b;fill-opacity:1;fill-rule:nonzero;stroke:none"
             id="path1511" /><path
             d="m 621.0835,135.7363 h 1.152 l 3.061,-7.835 h -1.152 l -0.857,2.359 h -3.311 l -0.88,-2.359 h -1.075 z m -0.78,-4.598 h 2.655 l -1.307,3.654 h -0.018 z"
             style="fill:#1d191b;fill-opacity:1;fill-rule:nonzero;stroke:none"
             id="path1515" /><path
             d="m 626.106,135.736 h 1.042 v -7.835 h -1.042 z"
             style="fill:#1d191b;fill-opacity:1;fill-rule:nonzero;stroke:none"
             id="path1517" /><path
             d="m 628.9028,135.7363 h 3.688 c 1.469,0 2.381,-0.802 2.381,-2.051 0,-0.945 -0.42,-1.725 -1.361,-1.987 v -0.023 c 0.91,-0.175 1.096,-0.844 1.173,-1.611 0.065,-0.769 0.021,-1.626 0.461,-2.163 h -1.161 c -0.298,0.319 -0.132,1.164 -0.287,1.932 -0.111,0.768 -0.296,1.416 -1.306,1.416 h -2.544 v -3.348 h -1.044 z m 3.214,-3.611 c 0.977,0 1.812,0.253 1.812,1.394 0,0.769 -0.417,1.338 -1.392,1.338 h -2.59 v -2.732 z"
             style="fill:#1d191b;fill-opacity:1;fill-rule:nonzero;stroke:none"
             id="path1521" /><path
             d="m 636.4185,135.7363 h 5.408 v -0.879 h -4.368 v -2.49 h 4.075 v -0.878 h -4.075 v -2.71 h 4.4 v -0.878 h -5.44 z"
             style="fill:#1d191b;fill-opacity:1;fill-rule:nonzero;stroke:none"
             id="path1525" /><path
             d="m 647.6519,133.4424 c -0.121,1.12 -0.868,1.602 -1.941,1.602 -0.879,0 -1.758,-0.318 -1.758,-1.338 0,-0.966 1.251,-1.109 2.513,-1.393 1.251,-0.286 2.502,-0.725 2.502,-2.26 0,-1.671 -1.634,-2.339 -3.061,-2.339 -1.755,0 -3.235,0.857 -3.235,2.766 h 0.984 c 0,-1.317 1.1,-1.887 2.284,-1.887 0.942,0 1.986,0.295 1.986,1.426 0,1.075 -1.251,1.262 -2.503,1.537 -1.25,0.274 -2.512,0.637 -2.512,2.073 0,1.591 1.417,2.292 2.841,2.292 1.603,0 2.82,-0.756 2.887,-2.479 z"
             style="fill:#1d191b;fill-opacity:1;fill-rule:nonzero;stroke:none"
             id="path1529" /></g><text
           xml:space="preserve"
           style="font-weight:bold;font-size:12px;line-height:1.25;font-family:sans-serif;-inkscape-font-specification:'sans-serif Bold';letter-spacing:0px;word-spacing:0px;stroke-width:0.75"
           x="475.70294"
           y="-114.12006"
           id="text1634"
           transform="scale(1,-1)"><tspan
             sodipodi:role="line"
             id="tspan1632"
             x="475.70294"
             y="-114.12006"
             style="font-style:normal;font-variant:normal;font-weight:normal;font-stretch:normal;font-size:11px;font-family:sans-serif;-inkscape-font-specification:'sans-serif, Normal';font-variant-ligatures:normal;font-variant-caps:normal;font-variant-numeric:normal;font-variant-east-asian:normal;stroke-width:0.75">INGENIERÍA ELECTRÓNICA</tspan></text></g></g></g></svg>
